<svg id="レイヤー_1" data-name="レイヤー 1" xmlns="http://www.w3.org/2000/svg" viewBox="0 0 859.3725 299.2831"><defs><style>.cls-1{fill:#fff;}</style></defs><path class="cls-1" d="M203.3891,126.626c-.2493-4.21-3.1369-6.7664-8.1555-7.8461a6.9083,6.9083,0,0,1,3.8042,5.8829c1.1267,16.8583-44.9354,53.4695-97.0026,79.6855-46.5816,23.4694-85.0075,31.8951-90.2694,20.501-3.2785-7.0766,6.5972-20.8319,25.6212-36.8136C10.8208,208.45-3.5209,226.5155.7427,235.0967,6.72,247.18,48.41,237.8288,98.6689,212.4839,154.77,184.1769,204.4689,144.78,203.3891,126.626Z"/><circle class="cls-1" cx="289.4902" cy="17.2242" r="12.9256"/><path class="cls-1" d="M162.9191,85.36c-3.9734-.4987-8.3718,1.3291-12.9726,5.1a13.31,13.31,0,0,1,7.9809-1.9425c16.8114,2.03,18.39,48.093,4.4253,101.3809-13.5329,51.621-37.2924,93.083-53.9013,94.0812-10.2681.62-15.7324-14.3086-15.5977-38.1558-2.1317,32.9071,3.8927,54.3869,16.7713,53.4288,18.2144-1.3354,44.0318-47.3235,58.509-103.9169C182.969,137.3791,181.0258,87.6129,162.9191,85.36Z"/><path class="cls-1" d="M204.6644,128.1638c-46.5215-24.3059-93.42-31.74-108.5991-17.81A15.1882,15.1882,0,0,0,91.06,121.5328a13.9989,13.9989,0,0,1,4.0882-6.5979c14.0993-13.02,57.3422-5.7475,99.4646,17.1084,45.0507,24.4206,74.2953,58.556,61.9161,75.34-7.8725,10.6722-30.0611,11.2124-56.789,3.5756,35.6738,12.5885,66.7054,13.8023,76.3794.1416C289.4093,192.34,255.2871,154.6022,204.6644,128.1638Z"/><path class="cls-1" d="M301.0259,39.3375C290.1174,26.0478,227.21,48.2565,165.3,84.5907c-56.4447,33.1371-98.2571,70.0792-97.7176,86.1079.1085,3.4941,2.2334,5.8421,6.0853,7.0559a6.3757,6.3757,0,0,1-2.7321-5.1534c-.6341-15.0174,38.5-49.2267,90.7018-79.2269C217.9409,61.0129,273.8186,42.3736,282.96,55.0022c6.0307,8.3248-9.7485,27.3827-37.8056,48.9095C285.2065,75.6455,309.2969,49.4163,301.0259,39.3375Z"/><path class="cls-1" d="M105.3745,209.5024c-14.915-3.7649-15.7785-47.061-3.2447-96.6185,12.44-49.132,35.0465-92.53,51.9657-97.7445,11.1447-3.4471,17.364,10.18,17.4725,34.21,2.05-33.61-4.8709-53.47-18.7816-48.6263-18.3429,6.3955-42.541,54.32-55.6421,107.594s-12.0822,99.5392,3.6565,103.6944c3.6163.945,7.6837-.3371,12.015-3.5549A11.0428,11.0428,0,0,1,105.3745,209.5024Z"/><path class="cls-1" d="M170.4005,188.2312c-15.9479,12.8248-59.8719,1.4776-95.8828-22.0795C41.8531,144.78,23.6856,118.3958,31.8288,104.6,37.03,95.7893,52.1412,93.2934,71.921,97.28c-25.8713-7.1574-46.0628-5.1064-52.1543,5.8359-8.291,14.9359,11.6974,43.283,46.8586,66.1659,38.6615,25.19,85.6554,37.4546,102.75,23.9218a15.4464,15.4464,0,0,0,6.0376-12.3792A14.4831,14.4831,0,0,1,170.4005,188.2312Z"/><path class="cls-1" d="M146.6611,149.5828a17.4521,17.4521,0,1,1-17.4587-17.4587A17.45,17.45,0,0,1,146.6611,149.5828Z"/><path class="cls-1" d="M426.7213,138.256l14.4105,14.4-14.4105,14.3921-4.3007-4.3007H395.7092v33.46h48.03v20.1849H374.77V100.1283h65.9846v20.1828H395.7092v22.2436h26.7114Z"/><path class="cls-1" d="M495.3128,222.752l-16.2816-16.2632,16.2816-16.2613,16.2429,16.2613Z"/><path class="cls-1" d="M660.5239,209.2873a77.06,77.06,0,0,1-38.4966,9.9121c-40.009,0-68.7912-25.4294-68.7912-60.94s30.8327-60.9379,68.7912-60.9379c14.5718,0,27.8264,3.3631,38.4966,9.535v24.3022c-8.4-8.041-21.12-12.8981-36.2667-12.8981-26.155,0-47.6525,16.4528-47.6525,39.9988,0,23.548,19.8058,39.9988,47.6525,39.9988a59.5758,59.5758,0,0,0,15.3257-2.05V182.1866H627.2435V164.2418h42.8154v17.9448h-9.535Z"/><path class="cls-1" d="M719.5621,222.752l-16.2632-16.2632,16.2632-16.2613,16.2613,16.2613Z"/><path class="cls-1" d="M859.3725,120.3111H824.5794v96.0816H803.6587V120.3111H768.886V100.1283h90.4865Z"/></svg>